<svg width="24" height="26" viewBox="0 0 24 26" fill="none" xmlns="http://www.w3.org/2000/svg">
<path d="M21.2045 2.77273H20.0682V1.63636C20.0682 1.01136 19.5568 0.5 18.9318 0.5C18.3068 0.5 17.7955 1.01136 17.7955 1.63636V2.77273H6.43182V1.63636C6.43182 1.01136 5.92045 0.5 5.29545 0.5C4.67045 0.5 4.15909 1.01136 4.15909 1.63636V2.77273H3.02273C1.77273 2.77273 0.75 3.79545 0.75 5.04545V23.2273C0.75 24.4773 1.77273 25.5 3.02273 25.5H21.2045C22.4545 25.5 23.4773 24.4773 23.4773 23.2273V5.04545C23.4773 3.79545 22.4545 2.77273 21.2045 2.77273ZM20.0682 23.2273H4.15909C3.53409 23.2273 3.02273 22.7159 3.02273 22.0909V8.45455H21.2045V22.0909C21.2045 22.7159 20.6932 23.2273 20.0682 23.2273Z" fill="white"/>
</svg>
