<svg width="26" height="26" viewBox="0 0 26 26" fill="none" xmlns="http://www.w3.org/2000/svg">
<path fill-rule="evenodd" clip-rule="evenodd" d="M13 23C18.5229 23 23 18.5229 23 13C23 7.47715 18.5229 3 13 3C7.47715 3 3 7.47715 3 13C3 18.5229 7.47715 23 13 23ZM13 25.5C19.9035 25.5 25.5 19.9035 25.5 13C25.5 6.09644 19.9035 0.5 13 0.5C6.09644 0.5 0.5 6.09644 0.5 13C0.5 19.9035 6.09644 25.5 13 25.5ZM11.75 5.5C12.4404 5.5 13 6.05965 13 6.75V13H18C18.6904 13 19.25 13.5596 19.25 14.25C19.25 14.9404 18.6904 15.5 18 15.5H11.75C11.0596 15.5 10.5 14.9404 10.5 14.25V6.75C10.5 6.05965 11.0596 5.5 11.75 5.5Z" fill="white"/>
</svg>
